<svg xmlns="http://www.w3.org/2000/svg" fill="none" viewBox="0 0 56 23"><path fill="#2A41CC" d="M30.799 9.263c.914.963 1.372 2.307 1.372 4.032v7.509h-3.15v-7.07c0-1.017-.248-1.798-.743-2.345-.495-.547-1.17-.82-2.025-.82-.87 0-1.556.273-2.059.82-.502.547-.753 1.328-.753 2.345v7.07h-3.15v-12.8h3.15v1.594c.42-.554.956-.99 1.608-1.305a4.872 4.872 0 0 1 2.15-.474c1.484 0 2.684.482 3.6 1.444ZM38.831 10.66v6.193c0 .431.102.743.304.935.203.193.544.29 1.024.29h1.463v2.726h-1.98c-2.656 0-3.983-1.325-3.983-3.974v-6.17h-1.485V8.005h1.485V4.839h3.172v3.165h2.79v2.657h-2.79ZM55.392 15.374H46.28c.075.924.39 1.649.945 2.172.555.524 1.238.786 2.048.786 1.17 0 2.003-.516 2.498-1.548h3.397a5.832 5.832 0 0 1-2.07 3.038c-1.02.793-2.273 1.19-3.758 1.19-1.2 0-2.276-.274-3.228-.82a5.699 5.699 0 0 1-2.228-2.323c-.533-1-.799-2.156-.799-3.465 0-1.325.262-2.488.788-3.489.525-1 1.26-1.77 2.205-2.31.945-.54 2.032-.809 3.263-.809 1.184 0 2.246.262 3.183.786a5.46 5.46 0 0 1 2.183 2.23c.518.962.776 2.067.776 3.315 0 .462-.03.878-.09 1.247Zm-3.173-2.172c-.015-.831-.307-1.497-.877-1.998-.57-.5-1.268-.751-2.093-.751-.78 0-1.436.243-1.969.728-.532.485-.858 1.159-.978 2.021h5.917Z"/><path fill="#2A41CC" fill-rule="evenodd" d="M10.95 11.015c.306-.037.613-.073.92-.108.644-.073 1.503.095 2.007-.425.593-.61.59-2.089.538-2.877-.088-1.321-.923-2.246-2.195-2.43-1.792-.26-3.475.083-5.073.926-.83.438-1.437 1.109-1.837 1.963-.365.781-.989 1.086-1.78 1.1-.31.007-.63-.018-.929-.094-1.194-.303-1.389-1.658-.926-2.465.45-.786 1.062-1.423 1.74-1.997 1.926-1.63 4.156-2.535 6.624-2.772 1.735-.167 3.468-.092 5.113.615 2.024.87 3.098 3.132 3.052 5.256-.05 2.385-.646 4.966-1.82 7.033a16.205 16.205 0 0 1-2.73 3.52c-1.805 1.754-3.954 2.85-6.472 2.926-2.101.064-4.054-.44-5.475-2.213-.77-.959-1.183-2.066-1.185-3.322-.007-3.773 5.36-4.01 7.961-4.332.822-.102 1.644-.205 2.466-.304Zm1.951 2.752-.103-.116c-.097-.002-.196-.017-.291-.005-1.892.24-3.787.458-5.674.737-.685.102-1.358.326-2.022.54-.334.107-.638.315-.624.762.022.692.26 1.273.814 1.692.716.541 1.539.636 2.386.548 1.705-.178 3.047-1.072 4.16-2.348.493-.565.905-1.204 1.354-1.81Z" clip-rule="evenodd"/></svg>