<svg xmlns="http://www.w3.org/2000/svg" width="1600" height="788" viewBox="0 0 1600 788"><path fill="#00DAE9" fill-opacity=".08" fill-rule="evenodd" d="M961.079 1045.76c34.276-10.28 68.191-20.5 102.461-30.78 71.47-21.082 172.13-19.932 219.04-87.781 54.98-79.455 25.72-242.76 3.91-328.77-35.97-144.044-149.03-229.127-297.041-223.673-208.197 7.585-392.413 79.723-556.857 205.504-85.359 65.333-140.993 151.676-169.276 254.186-26.075 93.838-90.782 140.046-180.193 157.572-34.863 7-71.838 10.612-107.24 8.302-141.611-9.233-190.263-154.767-153.776-253.48 35.487-95.9 92.504-178.729 157.688-255.872C165.874 271.769 400.952 126.559 675.837 50.213 869.347-3.65 1067.33-30.473 1267.57 14.156c246.89 55.082 413.39 282.962 449.92 518.328 41.33 264.228 24.97 561.366-67.12 813.766-56.57 154.6-142.03 311.75-239.85 444.03-170.17 230.27-391.99 394.92-675.904 454.45-237.155 49.65-468.347 33.89-664.542-132.99-106.062-90.1-175.033-204.15-200.219-342.6-74.959-416.22 529.152-551.18 817.647-639.75 91.292-28.02 182.22-55.98 273.577-83.63Zm275.741 264.36c-4.79-3.66-9.16-7.01-13.95-10.67-11 1.59-22.56 2.16-33.24 5.58-209.932 65.08-420.323 127.61-628.81 196.58-75.617 25.21-147.426 63.28-218.636 100.5-35.754 18.82-66.334 47.63-55.628 96.87 16.204 75.73 54.674 135.05 125.667 170.11 92.001 45.22 187.212 39.07 281.317 12.05 189.668-54.31 324.34-180.4 425.25-343.7 44.96-72.39 79.31-151.54 118.03-227.32Z" clip-rule="evenodd"/></svg>