<svg xmlns="http://www.w3.org/2000/svg" fill="none" viewBox="0 0 25 28"><path fill="#00DAE9" fill-rule="evenodd" d="M14.781 13.322c.437-.07.874-.125 1.297-.194.914-.125 2.128.07 2.824-.68.819-.889.75-2.958.641-4.054-.177-1.847-1.392-3.11-3.206-3.319-2.552-.291-4.912.264-7.15 1.514-1.16.652-1.992 1.61-2.524 2.832-.491 1.11-1.35 1.569-2.47 1.624-.436.028-.886 0-1.323-.097-1.705-.375-2.033-2.263-1.405-3.415.6-1.125 1.446-2.041 2.388-2.874C6.513 2.285 9.638.924 13.117.494c2.456-.306 4.912-.278 7.258.652 2.907 1.139 4.517 4.263 4.53 7.248.028 3.345-.723 6.997-2.292 9.94a22.787 22.787 0 0 1-3.725 5.054c-2.483 2.54-5.485 4.165-9.046 4.373-2.974.18-5.758-.444-7.845-2.874-1.133-1.319-1.76-2.846-1.815-4.61-.163-5.289 7.423-5.844 11.093-6.413 1.187-.18 2.347-.361 3.506-.542Zm2.866 3.79c-.055-.055-.096-.11-.15-.152-.137 0-.273-.014-.41 0-2.674.416-5.348.805-8.009 1.277-.968.167-1.91.514-2.838.833-.464.166-.887.472-.86 1.097.055.971.424 1.777 1.215 2.332 1.037.736 2.197.833 3.397.667 2.402-.32 4.271-1.625 5.8-3.471.681-.806 1.24-1.722 1.855-2.583Z" clip-rule="evenodd"/></svg>