<svg xmlns="http://www.w3.org/2000/svg" fill="none" viewBox="0 0 80 28"><path fill="#fff" d="M44.434 11.115c1.214 1.36 1.814 3.276 1.814 5.734v10.44h-4.461v-9.927c0-1.43-.355-2.54-1.078-3.318-.724-.791-1.706-1.18-2.961-1.18-1.269 0-2.292.416-3.056 1.263-.764.847-1.147 2.055-1.147 3.638v9.538h-4.488V9.323h4.488v3.597a5.716 5.716 0 0 1 2.306-2.833c1.078-.68 2.306-1.027 3.712-1.027 2.032.014 3.656.694 4.87 2.055ZM59.633 23.374v3.929h-2.36c-1.979 0-3.493-.486-4.544-1.458-1.05-.972-1.583-2.596-1.583-4.86v-7.788H48.69V9.324h2.456V4.88h4.49v4.443h3.956v3.86h-3.957v7.844c0 .86.164 1.471.505 1.818.341.347.914.514 1.72.514h1.773v.014ZM79.294 19.181H66.359c.068 1.597.491 2.777 1.27 3.54.79.764 1.76 1.139 2.933 1.139 1.037 0 1.91-.264 2.592-.778.696-.513 1.132-1.222 1.323-2.11h4.748a7.841 7.841 0 0 1-1.5 3.374c-.764 1-1.747 1.777-2.947 2.332-1.201.57-2.538.847-3.998.847-1.72 0-3.247-.375-4.585-1.125-1.337-.75-2.374-1.804-3.124-3.193-.75-1.388-1.119-3.012-1.119-4.9 0-1.875.369-3.513 1.119-4.915.737-1.389 1.787-2.458 3.124-3.194 1.338-.735 2.866-1.096 4.585-1.096 1.746 0 3.26.36 4.57 1.096a7.72 7.72 0 0 1 3.03 3.027c.71 1.291 1.064 2.749 1.064 4.387.013.472-.041.986-.15 1.569Zm-5.499-5.345c-.818-.75-1.828-1.139-3.015-1.139-1.215 0-2.224.375-3.056 1.139-.833.764-1.283 1.874-1.365 3.346h8.569c.068-1.472-.314-2.582-1.133-3.346Z"/><path fill="#00DAE9" fill-rule="evenodd" d="M14.781 13.322c.437-.07.874-.125 1.297-.194.914-.125 2.128.07 2.824-.68.819-.889.75-2.958.641-4.054-.177-1.847-1.392-3.11-3.206-3.319-2.552-.291-4.912.264-7.15 1.514-1.16.652-1.992 1.61-2.524 2.832-.491 1.11-1.35 1.569-2.47 1.624-.436.028-.886 0-1.323-.097-1.705-.375-2.033-2.263-1.405-3.415.6-1.125 1.446-2.041 2.388-2.874C6.513 2.285 9.638.924 13.117.494c2.456-.306 4.912-.278 7.258.652 2.907 1.139 4.517 4.263 4.53 7.248.028 3.345-.723 6.997-2.292 9.94a22.787 22.787 0 0 1-3.725 5.054c-2.483 2.54-5.485 4.165-9.046 4.373-2.974.18-5.758-.444-7.845-2.874-1.133-1.319-1.76-2.846-1.815-4.61-.163-5.289 7.423-5.844 11.093-6.413 1.187-.18 2.347-.361 3.506-.542Zm2.866 3.79c-.055-.055-.096-.11-.15-.152-.137 0-.273-.014-.41 0-2.674.416-5.348.805-8.009 1.277-.968.167-1.91.514-2.838.833-.464.166-.887.472-.86 1.097.055.971.424 1.777 1.215 2.332 1.037.736 2.197.833 3.397.667 2.402-.32 4.271-1.625 5.8-3.471.681-.806 1.24-1.722 1.855-2.583Z" clip-rule="evenodd"/></svg>